<svg xmlns="http://www.w3.org/2000/svg" viewBox="0 0 1357.685 1548.9499999999998" width="1357.685" height="1548.9499999999998" style="--bg:#1a1b26;--fg:#a9b1d6;--line:#3d59a1;--accent:#7aa2f7;--muted:#565f89;background:var(--bg)">
<style>
  @import url('https://fonts.googleapis.com/css2?family=Inter:wght@400;500;600;700&amp;display=swap');
  text { font-family: 'Inter', system-ui, sans-serif; }
  svg {
    /* Derived from --bg and --fg (overridable via --line, --accent, etc.) */
    --_text:          var(--fg);
    --_text-sec:      var(--muted, color-mix(in srgb, var(--fg) 60%, var(--bg)));
    --_text-muted:    var(--muted, color-mix(in srgb, var(--fg) 40%, var(--bg)));
    --_text-faint:    color-mix(in srgb, var(--fg) 25%, var(--bg));
    --_line:          var(--line, color-mix(in srgb, var(--fg) 30%, var(--bg)));
    --_arrow:         var(--accent, color-mix(in srgb, var(--fg) 50%, var(--bg)));
    --_node-fill:     var(--surface, color-mix(in srgb, var(--fg) 3%, var(--bg)));
    --_node-stroke:   var(--border, color-mix(in srgb, var(--fg) 20%, var(--bg)));
    --_group-fill:    var(--bg);
    --_group-hdr:     color-mix(in srgb, var(--fg) 5%, var(--bg));
    --_inner-stroke:  color-mix(in srgb, var(--fg) 12%, var(--bg));
    --_key-badge:     color-mix(in srgb, var(--fg) 10%, var(--bg));
  }
</style>
<defs>
  <marker id="arrowhead" markerWidth="8" markerHeight="4.8" refX="8" refY="2.4" orient="auto">
    <polygon points="0 0, 8 2.4, 0 4.8" fill="var(--_arrow)" />
  </marker>
  <marker id="arrowhead-start" markerWidth="8" markerHeight="4.8" refX="0" refY="2.4" orient="auto-start-reverse">
    <polygon points="8 0, 0 2.4, 8 4.8" fill="var(--_arrow)" />
  </marker>
</defs>
<polyline points="705.0600000000001,1212.8999999999999 705.0600000000001,1490.9499999999998 356.825,1490.9499999999998" fill="none" stroke="var(--_line)" stroke-width="0.75" marker-end="url(#arrowhead)" />
<polyline points="230,1472.9499999999998 230,1444.4499999999998 134.79999999999998,1444.4499999999998 134.79999999999998,885.8283066361555 151.37830663615557,885.8283066361555" fill="none" stroke="var(--_line)" stroke-width="0.75" marker-end="url(#arrowhead)" />
<polyline points="213.4216933638444,885.8283066361555 213.4216933638444,945.3499999999999 230,945.3499999999999 230,1176.8999999999999" fill="none" stroke="var(--_line)" stroke-width="0.75" marker-end="url(#arrowhead)" />
<polyline points="230,1212.8999999999999 230,1472.9499999999998" fill="none" stroke="var(--_line)" stroke-width="0.75" marker-end="url(#arrowhead)" />
<polyline points="287.1708846324823,812.0791153675176 287.1708846324823,945.3499999999999 658.2375,945.3499999999999 658.2375,1194.8999999999999 575.6850000000001,1194.8999999999999" fill="none" stroke="var(--_line)" stroke-width="0.75" marker-end="url(#arrowhead)" />
<polyline points="459.58500000000004,1176.8999999999999 459.58500000000004,945.3499999999999 365.8875,945.3499999999999 365.8875,496.3262209222626 410.59622092226266,496.3262209222626" fill="none" stroke="var(--_line)" stroke-width="0.75" marker-end="url(#arrowhead)" />
<polyline points="474.3815360847759,560.1115360847759 474.3815360847759,603.55 471.8125,603.55 471.8125,756.4499999999999" fill="none" stroke="var(--_line)" stroke-width="0.75" marker-end="url(#arrowhead)" />
<polyline points="471.8125,792.4499999999999 471.8125,1194.8999999999999 575.6850000000001,1194.8999999999999" fill="none" stroke="var(--_line)" stroke-width="0.75" marker-end="url(#arrowhead)" />
<polyline points="655.5498238713761,408.82017612862376 655.5498238713761,603.55 975.11,603.55 975.11,756.4499999999999" fill="none" stroke="var(--_line)" stroke-width="0.75" marker-end="url(#arrowhead)" />
<polyline points="975.11,792.4499999999999 975.11,945.3499999999999 1096.635,945.3499999999999 1096.635,973.8499999999999" fill="none" stroke="var(--_line)" stroke-width="0.75" marker-end="url(#arrowhead)" />
<polyline points="1026.6596705008387,1345.9746705008386 1026.6596705008387,1444.4499999999998 981.0475,1444.4499999999998 981.0475,1490.9499999999998 950.5975,1490.9499999999998" fill="none" stroke="var(--_line)" stroke-width="0.75" marker-end="url(#arrowhead)" />
<polyline points="859.5224999999999,1472.9499999999998 859.5224999999999,1444.4499999999998 832.4350000000001,1444.4499999999998 832.4350000000001,774.4499999999999 862.585,774.4499999999999" fill="none" stroke="var(--_line)" stroke-width="0.75" marker-end="url(#arrowhead)" />
<polyline points="1113.905807166605,1398.6791928333948 1113.905807166605,1444.4499999999998 1117.7849999999999,1444.4499999999998 1117.7849999999999,1472.9499999999998" fill="none" stroke="var(--_line)" stroke-width="0.75" marker-end="url(#arrowhead)" />
<rect x="216.28" y="931.8499999999999" width="27.44" height="27" rx="4" ry="4" fill="var(--bg)" stroke="var(--_inner-stroke)" stroke-width="0.5" />
<text x="230" y="945.3499999999999" text-anchor="middle" dy="0.35em" font-size="11" font-weight="400" fill="var(--_text-muted)">No</text>
<rect x="641.6574999999999" y="931.8499999999999" width="33.16" height="27" rx="4" ry="4" fill="var(--bg)" stroke="var(--_inner-stroke)" stroke-width="0.5" />
<text x="658.2375" y="945.3499999999999" text-anchor="middle" dy="0.35em" font-size="11" font-weight="400" fill="var(--_text-muted)">Yes</text>
<rect x="458.0925" y="590.05" width="27.44" height="27" rx="4" ry="4" fill="var(--bg)" stroke="var(--_inner-stroke)" stroke-width="0.5" />
<text x="471.8125" y="603.55" text-anchor="middle" dy="0.35em" font-size="11" font-weight="400" fill="var(--_text-muted)">No</text>
<rect x="958.53" y="590.05" width="33.16" height="27" rx="4" ry="4" fill="var(--bg)" stroke="var(--_inner-stroke)" stroke-width="0.5" />
<text x="975.11" y="603.55" text-anchor="middle" dy="0.35em" font-size="11" font-weight="400" fill="var(--_text-muted)">Yes</text>
<rect x="967.3275" y="1430.9499999999998" width="27.44" height="27" rx="4" ry="4" fill="var(--bg)" stroke="var(--_inner-stroke)" stroke-width="0.5" />
<text x="981.0475" y="1444.4499999999998" text-anchor="middle" dy="0.35em" font-size="11" font-weight="400" fill="var(--_text-muted)">No</text>
<rect x="1101.205" y="1430.9499999999998" width="33.16" height="27" rx="4" ry="4" fill="var(--bg)" stroke="var(--_inner-stroke)" stroke-width="0.5" />
<text x="1117.7849999999999" y="1444.4499999999998" text-anchor="middle" dy="0.35em" font-size="11" font-weight="400" fill="var(--_text-muted)">Yes</text>
<rect x="599.6850000000001" y="1176.8999999999999" width="210.75000000000003" height="36" rx="0" ry="0" fill="var(--_node-fill)" stroke="var(--_node-stroke)" stroke-width="0.75" />
<rect x="103.175" y="1472.9499999999998" width="253.65" height="36" rx="0" ry="0" fill="var(--_node-fill)" stroke="var(--_node-stroke)" stroke-width="0.75" />
<polygon points="182.4,632.05 324.8,774.4499999999999 182.4,916.8499999999999 40,774.4499999999999" fill="var(--_node-fill)" stroke="var(--_node-stroke)" stroke-width="0.75" />
<rect x="156.8" y="1176.8999999999999" width="146.4" height="36" rx="0" ry="0" fill="var(--_node-fill)" stroke="var(--_node-stroke)" stroke-width="0.75" />
<rect x="343.485" y="1176.8999999999999" width="232.20000000000002" height="36" rx="0" ry="0" fill="var(--_node-fill)" stroke="var(--_node-stroke)" stroke-width="0.75" />
<polygon points="489.31999999999994,40 756.8449999999999,307.525 489.31999999999994,575.05 221.79499999999996,307.525" fill="var(--_node-fill)" stroke="var(--_node-stroke)" stroke-width="0.75" />
<rect x="387.8875" y="756.4499999999999" width="167.85000000000002" height="36" rx="0" ry="0" fill="var(--_node-fill)" stroke="var(--_node-stroke)" stroke-width="0.75" />
<rect x="862.585" y="756.4499999999999" width="225.05" height="36" rx="0" ry="0" fill="var(--_node-fill)" stroke="var(--_node-stroke)" stroke-width="0.75" />
<polygon points="1096.635,973.8499999999999 1317.685,1194.8999999999999 1096.635,1415.9499999999998 875.585,1194.8999999999999" fill="var(--_node-fill)" stroke="var(--_node-stroke)" stroke-width="0.75" />
<rect x="768.4474999999999" y="1472.9499999999998" width="182.15" height="36" rx="0" ry="0" fill="var(--_node-fill)" stroke="var(--_node-stroke)" stroke-width="0.75" />
<rect x="1001.6849999999998" y="1472.9499999999998" width="232.20000000000002" height="36" rx="0" ry="0" fill="var(--_node-fill)" stroke="var(--_node-stroke)" stroke-width="0.75" />
<text x="705.0600000000001" y="1194.8999999999999" text-anchor="middle" dy="0.35em" font-size="13" font-weight="500" fill="var(--_text)">&quot;/ar:go task description&quot;</text>
<text x="230" y="1490.9499999999998" text-anchor="middle" dy="0.35em" font-size="13" font-weight="500" fill="var(--_text)">Stage 1: Initial Implementation</text>
<text x="182.4" y="774.4499999999999" text-anchor="middle" dy="0.35em" font-size="13" font-weight="500" fill="var(--_text)">AUTORUN_INITIAL_TASKS_COMPLETED?</text>
<text x="230" y="1194.8999999999999" text-anchor="middle" dy="0.35em" font-size="13" font-weight="500" fill="var(--_text)">Continue working</text>
<text x="459.58500000000004" y="1194.8999999999999" text-anchor="middle" dy="0.35em" font-size="13" font-weight="500" fill="var(--_text)">Stage 2: Critical Evaluation</text>
<text x="489.31999999999994" y="307.525" text-anchor="middle" dy="0.35em" font-size="13" font-weight="500" fill="var(--_text)">CRITICALLY_EVALUATING_PREVIOUS_WORK_AND_CONTINUING_TASKS_AS_NEEDED?</text>
<text x="471.8125" y="774.4499999999999" text-anchor="middle" dy="0.35em" font-size="13" font-weight="500" fill="var(--_text)">Continue evaluation</text>
<text x="975.11" y="774.4499999999999" text-anchor="middle" dy="0.35em" font-size="13" font-weight="500" fill="var(--_text)">Stage 3: Final Verification</text>
<text x="1096.635" y="1194.8999999999999" text-anchor="middle" dy="0.35em" font-size="13" font-weight="500" fill="var(--_text)">AUTORUN_ALL_TASKS_COMPLETED_AND_VERIFIED_SUCCESSFULLY?</text>
<text x="859.5224999999999" y="1490.9499999999998" text-anchor="middle" dy="0.35em" font-size="13" font-weight="500" fill="var(--_text)">Continue verification</text>
<text x="1117.7849999999999" y="1490.9499999999998" text-anchor="middle" dy="0.35em" font-size="13" font-weight="500" fill="var(--_text)">Task Complete - Session Ends</text>
</svg>