<svg xmlns="http://www.w3.org/2000/svg" viewBox="0 0 1203.8975 969.8000000000001" width="1203.8975" height="969.8000000000001" style="--bg:#1a1b26;--fg:#a9b1d6;--line:#3d59a1;--accent:#7aa2f7;--muted:#565f89;background:var(--bg)">
<style>
  @import url('https://fonts.googleapis.com/css2?family=Inter:wght@400;500;600;700&amp;display=swap');
  text { font-family: 'Inter', system-ui, sans-serif; }
  svg {
    /* Derived from --bg and --fg (overridable via --line, --accent, etc.) */
    --_text:          var(--fg);
    --_text-sec:      var(--muted, color-mix(in srgb, var(--fg) 60%, var(--bg)));
    --_text-muted:    var(--muted, color-mix(in srgb, var(--fg) 40%, var(--bg)));
    --_text-faint:    color-mix(in srgb, var(--fg) 25%, var(--bg));
    --_line:          var(--line, color-mix(in srgb, var(--fg) 30%, var(--bg)));
    --_arrow:         var(--accent, color-mix(in srgb, var(--fg) 50%, var(--bg)));
    --_node-fill:     var(--surface, color-mix(in srgb, var(--fg) 3%, var(--bg)));
    --_node-stroke:   var(--border, color-mix(in srgb, var(--fg) 20%, var(--bg)));
    --_group-fill:    var(--bg);
    --_group-hdr:     color-mix(in srgb, var(--fg) 5%, var(--bg));
    --_inner-stroke:  color-mix(in srgb, var(--fg) 12%, var(--bg));
    --_key-badge:     color-mix(in srgb, var(--fg) 10%, var(--bg));
  }
</style>
<defs>
  <marker id="arrowhead" markerWidth="8" markerHeight="4.8" refX="8" refY="2.4" orient="auto">
    <polygon points="0 0, 8 2.4, 0 4.8" fill="var(--_arrow)" />
  </marker>
  <marker id="arrowhead-start" markerWidth="8" markerHeight="4.8" refX="0" refY="2.4" orient="auto-start-reverse">
    <polygon points="8 0, 0 2.4, 8 4.8" fill="var(--_arrow)" />
  </marker>
</defs>
<polyline points="660.1750000000001,741 660.1750000000001,911.8000000000001 328.2250000000001,911.8000000000001" fill="none" stroke="var(--_line)" stroke-width="0.75" marker-end="url(#arrowhead)" />
<polyline points="201.4000000000001,893.8000000000001 201.4000000000001,865.3000000000001 106.20000000000005,865.3000000000001 106.20000000000005,523.6750921537651 125.2750921537652,523.6750921537651" fill="none" stroke="var(--_line)" stroke-width="0.75" marker-end="url(#arrowhead)" />
<polyline points="182.32490784623494,523.6750921537651 182.32490784623494,580.7 201.4000000000001,580.7 201.4000000000001,705" fill="none" stroke="var(--_line)" stroke-width="0.75" marker-end="url(#arrowhead)" />
<polyline points="201.4000000000001,741 201.4000000000001,893.8000000000001" fill="none" stroke="var(--_line)" stroke-width="0.75" marker-end="url(#arrowhead)" />
<polyline points="240.78195706626377,465.21804293373634 240.78195706626377,580.7 615.3375000000001,580.7 615.3375000000001,723 530.8000000000001,723" fill="none" stroke="var(--_line)" stroke-width="0.75" marker-end="url(#arrowhead)" />
<polyline points="414.70000000000005,705 414.70000000000005,580.7 322.98750000000007,580.7 322.98750000000007,214.74000545661522 393.5600054566153,214.74000545661522" fill="none" stroke="var(--_line)" stroke-width="0.75" marker-end="url(#arrowhead)" />
<polyline points="433.95279101418896,255.13279101418894 433.95279101418896,296.1 428.9125,296.1 428.9125,420.40000000000003" fill="none" stroke="var(--_line)" stroke-width="0.75" marker-end="url(#arrowhead)" />
<polyline points="428.9125,456.40000000000003 428.9125,723 530.8000000000001,723" fill="none" stroke="var(--_line)" stroke-width="0.75" marker-end="url(#arrowhead)" />
<polyline points="534.4374847553695,179.58251524463057 534.4374847553695,296.1 932.21,296.1 932.21,420.40000000000003" fill="none" stroke="var(--_line)" stroke-width="0.75" marker-end="url(#arrowhead)" />
<polyline points="932.21,456.40000000000003 932.21,580.7 1026.6475,580.7 1026.6475,609.2" fill="none" stroke="var(--_line)" stroke-width="0.75" marker-end="url(#arrowhead)" />
<polyline points="975.6413151325676,785.7938151325675 975.6413151325676,865.3000000000001 911.0600000000001,865.3000000000001 911.0600000000001,911.8000000000001 907.6975000000001,911.8000000000001" fill="none" stroke="var(--_line)" stroke-width="0.75" marker-end="url(#arrowhead)" />
<polyline points="816.6225000000001,893.8000000000001 816.6225000000001,865.3000000000001 787.5500000000001,865.3000000000001 787.5500000000001,438.40000000000003 819.6850000000001,438.40000000000003" fill="none" stroke="var(--_line)" stroke-width="0.75" marker-end="url(#arrowhead)" />
<polyline points="1041.3729206179262,822.0745793820739 1041.3729206179262,865.3000000000001 1047.7975000000001,865.3000000000001 1047.7975000000001,893.8000000000001" fill="none" stroke="var(--_line)" stroke-width="0.75" marker-end="url(#arrowhead)" />
<rect x="187.6800000000001" y="567.2" width="27.44" height="27" rx="4" ry="4" fill="var(--bg)" stroke="var(--_inner-stroke)" stroke-width="0.5" />
<text x="201.4000000000001" y="580.7" text-anchor="middle" dy="0.35em" font-size="11" font-weight="400" fill="var(--_text-muted)">No</text>
<rect x="598.7575" y="567.2" width="33.16" height="27" rx="4" ry="4" fill="var(--bg)" stroke="var(--_inner-stroke)" stroke-width="0.5" />
<text x="615.3375000000001" y="580.7" text-anchor="middle" dy="0.35em" font-size="11" font-weight="400" fill="var(--_text-muted)">Yes</text>
<rect x="415.1925" y="282.6" width="27.44" height="27" rx="4" ry="4" fill="var(--bg)" stroke="var(--_inner-stroke)" stroke-width="0.5" />
<text x="428.9125" y="296.1" text-anchor="middle" dy="0.35em" font-size="11" font-weight="400" fill="var(--_text-muted)">No</text>
<rect x="915.63" y="282.6" width="33.16" height="27" rx="4" ry="4" fill="var(--bg)" stroke="var(--_inner-stroke)" stroke-width="0.5" />
<text x="932.21" y="296.1" text-anchor="middle" dy="0.35em" font-size="11" font-weight="400" fill="var(--_text-muted)">Yes</text>
<rect x="897.34" y="851.8000000000001" width="27.44" height="27" rx="4" ry="4" fill="var(--bg)" stroke="var(--_inner-stroke)" stroke-width="0.5" />
<text x="911.0600000000001" y="865.3000000000001" text-anchor="middle" dy="0.35em" font-size="11" font-weight="400" fill="var(--_text-muted)">No</text>
<rect x="1031.2175000000002" y="851.8000000000001" width="33.16" height="27" rx="4" ry="4" fill="var(--bg)" stroke="var(--_inner-stroke)" stroke-width="0.5" />
<text x="1047.7975000000001" y="865.3000000000001" text-anchor="middle" dy="0.35em" font-size="11" font-weight="400" fill="var(--_text-muted)">Yes</text>
<rect x="554.8000000000001" y="705" width="210.75000000000003" height="36" rx="0" ry="0" fill="var(--_node-fill)" stroke="var(--_node-stroke)" stroke-width="0.75" />
<rect x="74.57500000000009" y="893.8000000000001" width="253.65" height="36" rx="0" ry="0" fill="var(--_node-fill)" stroke="var(--_node-stroke)" stroke-width="0.75" />
<polygon points="153.80000000000007,324.6 267.6000000000001,438.40000000000003 153.80000000000007,552.2 40.00000000000006,438.40000000000003" fill="var(--_node-fill)" stroke="var(--_node-stroke)" stroke-width="0.75" />
<rect x="128.2000000000001" y="705" width="146.4" height="36" rx="0" ry="0" fill="var(--_node-fill)" stroke="var(--_node-stroke)" stroke-width="0.75" />
<rect x="298.6" y="705" width="232.20000000000002" height="36" rx="0" ry="0" fill="var(--_node-fill)" stroke="var(--_node-stroke)" stroke-width="0.75" />
<polygon points="446.4200000000001,40 560.22,153.8 446.4200000000001,267.6 332.62000000000006,153.8" fill="var(--_node-fill)" stroke="var(--_node-stroke)" stroke-width="0.75" />
<rect x="344.9875" y="420.40000000000003" width="167.85000000000002" height="36" rx="0" ry="0" fill="var(--_node-fill)" stroke="var(--_node-stroke)" stroke-width="0.75" />
<rect x="819.6850000000001" y="420.40000000000003" width="225.05" height="36" rx="0" ry="0" fill="var(--_node-fill)" stroke="var(--_node-stroke)" stroke-width="0.75" />
<polygon points="1026.6475,609.2 1140.4475,723 1026.6475,836.8 912.8475000000001,723" fill="var(--_node-fill)" stroke="var(--_node-stroke)" stroke-width="0.75" />
<rect x="725.5475" y="893.8000000000001" width="182.15" height="36" rx="0" ry="0" fill="var(--_node-fill)" stroke="var(--_node-stroke)" stroke-width="0.75" />
<rect x="931.6975000000001" y="893.8000000000001" width="232.20000000000002" height="36" rx="0" ry="0" fill="var(--_node-fill)" stroke="var(--_node-stroke)" stroke-width="0.75" />
<text x="660.1750000000001" y="723" text-anchor="middle" dy="0.35em" font-size="13" font-weight="500" fill="var(--_text)">&quot;/cr:go task description&quot;</text>
<text x="201.4000000000001" y="911.8000000000001" text-anchor="middle" dy="0.35em" font-size="13" font-weight="500" fill="var(--_text)">Stage 1: Initial Implementation</text>
<text x="153.80000000000007" y="438.40000000000003" text-anchor="middle" dy="0.35em" font-size="13" font-weight="500" fill="var(--_text)">AUTORUN_STAGE1_COMPLETE?</text>
<text x="201.4000000000001" y="723" text-anchor="middle" dy="0.35em" font-size="13" font-weight="500" fill="var(--_text)">Continue working</text>
<text x="414.70000000000005" y="723" text-anchor="middle" dy="0.35em" font-size="13" font-weight="500" fill="var(--_text)">Stage 2: Critical Evaluation</text>
<text x="446.4200000000001" y="153.8" text-anchor="middle" dy="0.35em" font-size="13" font-weight="500" fill="var(--_text)">AUTORUN_STAGE2_COMPLETE?</text>
<text x="428.9125" y="438.40000000000003" text-anchor="middle" dy="0.35em" font-size="13" font-weight="500" fill="var(--_text)">Continue evaluation</text>
<text x="932.21" y="438.40000000000003" text-anchor="middle" dy="0.35em" font-size="13" font-weight="500" fill="var(--_text)">Stage 3: Final Verification</text>
<text x="1026.6475" y="723" text-anchor="middle" dy="0.35em" font-size="13" font-weight="500" fill="var(--_text)">AUTORUN_STAGE3_COMPLETE?</text>
<text x="816.6225000000001" y="911.8000000000001" text-anchor="middle" dy="0.35em" font-size="13" font-weight="500" fill="var(--_text)">Continue verification</text>
<text x="1047.7975000000001" y="911.8000000000001" text-anchor="middle" dy="0.35em" font-size="13" font-weight="500" fill="var(--_text)">Task Complete - Session Ends</text>
</svg>